<?xml version="1.0" encoding="UTF-8" standalone="no"?>
<!-- Created with Inkscape (http://www.inkscape.org/) -->

<svg
   xmlns:dc="http://purl.org/dc/elements/1.1/"
   xmlns:cc="http://creativecommons.org/ns#"
   xmlns:rdf="http://www.w3.org/1999/02/22-rdf-syntax-ns#"
   xmlns:svg="http://www.w3.org/2000/svg"
   xmlns="http://www.w3.org/2000/svg"
   version="1.1"
   width="750"
   height="600"
   viewBox="0 0 750 600"
   id="Layer_1"
   xml:space="preserve"
   style="overflow:visible"><metadata
     id="metadata24"><rdf:RDF><cc:Work
         rdf:about=""><dc:format>image/svg+xml</dc:format><dc:type
           rdf:resource="http://purl.org/dc/dcmitype/StillImage" /><dc:title></dc:title></cc:Work></rdf:RDF></metadata><defs
     id="defs22" /><g
     id="g3861"><g
       id="g5"><path
         d="M 0,50 C 0,22.385742 22.385254,0 50,0 h 650 c 27.61426,0 50,22.385742 50,50 v 500 c 0,27.61523 -22.38574,50 -50,50 H 50 C 22.385254,600 0,577.61523 0,550 V 50 l 0,0 z"
         id="path7" /><path
         d="M 375,300"
         id="path9" /></g><path
       d="M 375,10.001953 C 338.67236,32.46582 295.85059,45.430664 250,45.430664 204.14941,45.430664 161.32715,32.463867 125,10 L 10,125 c 21.163086,30.08057 33.587891,66.75244 33.587891,106.32764 0,28.56006 -6.471192,55.6084 -18.027832,79.7583 C 15.584961,331.95508 10,355.32617 10,380 10,468.36719 81.633301,540 170,540 H 270.11523 C 312.4585,540 350.24854,559.49414 375,589.99805 399.75098,559.49414 437.54102,540 479.88477,540 H 580 c 88.36719,0 160,-71.63281 160,-160 0,-24.67383 -5.58496,-48.04492 -15.56055,-68.91406 -11.55664,-24.1499 -18.02734,-51.19824 -18.02734,-79.7583 0,-39.5752 12.4248,-76.24707 33.58789,-106.32764 L 625,10 c -36.32715,22.463867 -79.14941,35.430664 -125,35.430664 -45.85059,0 -88.67285,-12.964844 -125,-35.428711 z"
       id="path11"
       style="fill:#ffffff;fill-opacity:1;fill-rule:evenodd" /></g><g
     transform="translate(-10,0)"
     id="text1331"
     style="font-size:447.76119995px;font-style:normal;font-variant:normal;font-weight:normal;font-stretch:normal;text-align:center;line-height:125%;writing-mode:lr-tb;text-anchor:middle;font-family:Roadgeek 2005 Series D;-inkscape-font-specification:Roadgeek 2005 Series D"><path
       d="m 319.19885,338.54477 c -2.3e-4,15.22397 -2.53754,29.25381 -7.61194,42.08956 -5.07485,12.83586 -12.23902,23.88063 -21.49254,33.13433 -8.95541,8.95524 -19.85093,16.11941 -32.68657,21.49253 -12.53747,5.07463 -26.41805,7.61194 -41.64179,7.61194 -12.23892,0 -23.73144,-1.9403 -34.47761,-5.82089 -10.44784,-3.88059 -20.14933,-9.25372 -29.10448,-16.1194 -8.65677,-6.86565 -16.11945,-15.22385 -22.38806,-25.07463 -6.26869,-9.8507 -10.89555,-20.89546 -13.8806,-33.13433 l 46.56717,-13.43284 c 3.58201,14.62694 10.14917,25.82096 19.70149,33.58209 9.55214,7.76124 21.49243,11.64184 35.8209,11.64179 8.05956,5e-5 15.37299,-1.34323 21.94029,-4.02985 6.56701,-2.68651 12.0894,-6.2686 16.56717,-10.74626 4.77595,-4.77606 8.50729,-10.29844 11.19403,-16.56717 2.68639,-6.56708 4.02967,-13.73125 4.02985,-21.49254 -1.8e-4,-7.76109 -1.49272,-15.07451 -4.47761,-21.9403 -2.98525,-6.86554 -7.16435,-12.23867 -12.53732,-16.1194 -1.7912,-1.19389 -3.43299,-2.08942 -4.92537,-2.68657 -1.19419,-0.89538 -2.83598,-1.4924 -4.92537,-1.79104 -1.7912,-0.29837 -4.32851,-0.59688 -7.61194,-0.89552 -2.98522,-0.29837 -7.31357,-0.59688 -12.98508,-0.89553 l -5.37313,0 0,-48.35821 0,1.34329 1.34328,0 0.89552,0 9.40299,0 c 9.55209,1.9e-4 16.86552,-2.53713 21.9403,-7.61194 5.07446,-5.07443 7.61177,-12.38785 7.61194,-21.9403 -1.7e-4,-11.64156 -4.17927,-21.19379 -12.53732,-28.65672 -8.05984,-7.76094 -18.20909,-11.64153 -30.44776,-11.64179 -20.0001,2.6e-4 -35.07471,9.85099 -45.22388,29.55224 l -44.32836,-16.56716 c 7.76115,-19.10422 19.40293,-34.02958 34.92538,-44.77612 15.82081,-11.04448 33.58198,-16.56686 53.28358,-16.56717 12.53718,3.1e-4 24.32821,2.38836 35.37313,7.16418 11.34312,4.77641 21.19385,11.34357 29.55224,19.70149 8.35802,8.35848 14.92517,18.20922 19.7015,29.55224 4.7759,11.04502 7.16396,22.83605 7.16418,35.37314 -2.2e-4,8.95543 -1.19425,17.01512 -3.58209,24.1791 -2.38827,7.16436 -6.86588,15.52256 -13.43284,25.07463 5.67144,5.07479 10.2983,10.00015 13.8806,14.77612 3.58187,4.47776 6.41769,9.25387 8.50746,14.32836 2.38784,5.07475 4.02963,10.59714 4.92537,16.56716 0.8953,5.67176 1.34306,12.23891 1.34329,19.70149"
       id="path6020"
       style="letter-spacing:13.27433681;font-family:Roadgeek 2005 Series D;-inkscape-font-specification:Roadgeek 2005 Series D" /><path
       d="m 419.86355,437.5 0,-243.13433 -27.31343,0 0,-38.0597 3.13432,0 c 6.26862,2.8e-4 12.53727,-1.64151 18.80597,-4.92538 6.2686,-3.28329 11.49248,-7.91015 15.67165,-13.88059 l 38.0597,0 0,300 -48.35821,0"
       id="path6022"
       style="letter-spacing:13.27433681;font-family:Roadgeek 2005 Series D;-inkscape-font-specification:Roadgeek 2005 Series D" /><path
       d="m 573.9378,437.5 0,-243.13433 -27.31344,0 0,-38.0597 3.13433,0 c 6.26862,2.8e-4 12.53727,-1.64151 18.80597,-4.92538 6.2686,-3.28329 11.49248,-7.91015 15.67165,-13.88059 l 38.0597,0 0,300 -48.35821,0"
       id="path6024"
       style="letter-spacing:13.27433681;font-family:Roadgeek 2005 Series D;-inkscape-font-specification:Roadgeek 2005 Series D" /></g></svg>